<svg width="63" height="80" viewBox="0 0 63 80" fill="none" xmlns="http://www.w3.org/2000/svg">
<path fill-rule="evenodd" clip-rule="evenodd" d="M48.4848 61.8316L14.4648 61.7053C14.4648 60.2105 10.4706 59.9326 10.4706 56.8926L14.5698 56.8632C14.5698 53.0147 14.6412 45.2168 14.6496 44.0589C14.6496 41.3895 15.708 40.1011 18.0096 40.0632C19.8702 40.0337 42.2814 39.9663 44.6628 39.9789C47.376 39.9789 48.342 41.7684 48.3798 44.2442C48.3798 45.2168 48.3798 52.5179 48.3798 56.6316L52.8696 56.6021C52.8486 59.7895 48.4848 60.4295 48.4848 61.8316ZM42.9618 48.1853C42.9618 45.7221 38.8962 45.7474 38.8962 48.1853C38.8962 48.7579 38.8962 49.2758 38.8962 49.6716C38.8962 55.2168 30.4962 55.3221 30.4962 49.6463C30.4962 47.0905 26.8632 47.36 26.8632 49.5537C26.8632 51.6589 22.2096 52.6358 22.2096 47.9916C22.2096 44.5221 19.1898 43.7811 17.2074 45.6L17.22 56.8421L45.5238 56.6484L45.717 50.821C44.0286 50.3326 42.9618 49.4063 42.9618 48.1853ZM43.7094 37.6589L39.5346 37.7811L39.4338 35.9495L38.7114 33.0779L44.2554 33.76L43.7094 37.6589ZM37.8 27.84C37.8 26.4084 38.22 23.8905 41.9244 21.6295C41.4204 25.6 44.7384 25.1116 44.7384 28.3663C44.7174 31.8568 37.8 31.7474 37.8 27.84ZM33.4236 37.9453L29.3244 38.0632L28.7028 31.3263L34.23 32.0421L33.6 34.6779L33.4236 37.9453ZM27.2412 25.9537C27.2412 24.5221 27.6612 22.0042 31.3656 19.7389C30.8616 23.7095 34.1796 23.2211 34.1796 26.4758C34.1796 29.9663 27.2412 29.8611 27.2412 25.9537ZM23.52 38.2526L19.4292 38.3705L18.7446 35.8653L18.018 33.76L23.562 33.9326L23.52 38.2526ZM17.073 28.0126C17.073 26.5811 17.493 24.0632 21.2016 21.7979C20.6976 25.7684 24.0156 25.28 24.0156 28.5347C24.0156 32.0295 17.073 31.92 17.073 28.0126Z" fill="white"/>
</svg>
